<svg width="1075" height="659" viewBox="0 0 1075 659" fill="none" xmlns="http://www.w3.org/2000/svg">
<path d="M481.464 196.536C483.417 198.488 486.583 198.488 488.536 196.536L520.355 164.716C522.308 162.763 522.308 159.597 520.355 157.645C518.403 155.692 515.237 155.692 513.284 157.645L485 185.929L456.716 157.645C454.763 155.692 451.597 155.692 449.645 157.645C447.692 159.597 447.692 162.763 449.645 164.716L481.464 196.536ZM480 121V193H490V121H480Z" fill="#82D1F5"/>
<path d="M762.464 541.536C764.417 543.488 767.583 543.488 769.536 541.536L801.355 509.716C803.308 507.763 803.308 504.597 801.355 502.645C799.403 500.692 796.237 500.692 794.284 502.645L766 530.929L737.716 502.645C735.763 500.692 732.597 500.692 730.645 502.645C728.692 504.597 728.692 507.763 730.645 509.716L762.464 541.536ZM761 466V538H771V466H761Z" fill="#82D1F5"/>
<path d="M481.464 541.536C483.417 543.488 486.583 543.488 488.536 541.536L520.355 509.716C522.308 507.763 522.308 504.597 520.355 502.645C518.403 500.692 515.237 500.692 513.284 502.645L485 530.929L456.716 502.645C454.763 500.692 451.597 500.692 449.645 502.645C447.692 504.597 447.692 507.763 449.645 509.716L481.464 541.536ZM480 466V538H490V466H480Z" fill="#82D1F5"/>
<path d="M179.464 529.538C181.417 531.49 184.583 531.49 186.536 529.538L218.355 497.718C220.308 495.765 220.308 492.599 218.355 490.647C216.403 488.694 213.237 488.694 211.284 490.647L183 518.931L154.716 490.647C152.763 488.694 149.597 488.694 147.645 490.647C145.692 492.599 145.692 495.765 147.645 497.718L179.464 529.538ZM178 120.997L178 526.002H188L188 120.997H178Z" fill="#82D1F5"/>
<path d="M762.464 196.536C764.417 198.488 767.583 198.488 769.536 196.536L801.355 164.716C803.308 162.763 803.308 159.597 801.355 157.645C799.403 155.692 796.237 155.692 794.284 157.645L766 185.929L737.716 157.645C735.763 155.692 732.597 155.692 730.645 157.645C728.692 159.597 728.692 162.763 730.645 164.716L762.464 196.536ZM761 121V193H771V121H761Z" fill="#82D1F5"/>
<path d="M36.5043 47V39.3295C36.5043 37.1515 36.9304 34.9261 37.7827 32.6534C38.6349 30.3807 39.7595 28.2382 41.1562 26.2259C42.553 24.2135 44.0682 22.5327 45.7017 21.1832L52.3778 25.125C51.0521 27.2083 49.9631 29.3864 49.1108 31.6591C48.2822 33.9318 47.8679 36.465 47.8679 39.2585V47H36.5043ZM54.4375 47V39.3295C54.4375 37.1515 54.8636 34.9261 55.7159 32.6534C56.5682 30.3807 57.6927 28.2382 59.0895 26.2259C60.4863 24.2135 62.0014 22.5327 63.6349 21.1832L70.3111 25.125C68.9853 27.2083 67.8963 29.3864 67.044 31.6591C66.2154 33.9318 65.8011 36.465 65.8011 39.2585V47H54.4375ZM94.3523 65.4659V97H79.2244V24.2727H93.9261V52.0781H94.5653C95.7964 48.8584 97.785 46.3371 100.531 44.5142C103.277 42.6676 106.722 41.7443 110.865 41.7443C114.653 41.7443 117.955 42.5729 120.773 44.2301C123.614 45.8636 125.815 48.2192 127.378 51.2969C128.964 54.3509 129.745 58.0085 129.722 62.2699V97H114.594V64.9688C114.617 61.607 113.765 58.991 112.037 57.1207C110.332 55.2505 107.941 54.3153 104.864 54.3153C102.804 54.3153 100.981 54.7533 99.3949 55.6293C97.8324 56.5052 96.6013 57.7836 95.7017 59.4645C94.8258 61.1217 94.3759 63.1222 94.3523 65.4659ZM166.485 98.0653C160.874 98.0653 156.044 96.929 151.996 94.6562C147.971 92.3598 144.87 89.1165 142.692 84.9261C140.514 80.7121 139.425 75.7287 139.425 69.9759C139.425 64.3651 140.514 59.4408 142.692 55.2031C144.87 50.9654 147.936 47.6629 151.89 45.2955C155.867 42.928 160.531 41.7443 165.881 41.7443C169.48 41.7443 172.829 42.3243 175.931 43.4844C179.056 44.6207 181.778 46.3371 184.098 48.6335C186.442 50.9299 188.265 53.8182 189.567 57.2983C190.869 60.7547 191.52 64.803 191.52 69.4432V73.598H145.462V64.223H177.28C177.28 62.045 176.807 60.1155 175.86 58.4347C174.913 56.7538 173.599 55.4399 171.918 54.4929C170.261 53.5223 168.331 53.0369 166.13 53.0369C163.833 53.0369 161.797 53.5696 160.022 54.6349C158.27 55.6766 156.897 57.0852 155.902 58.8608C154.908 60.6127 154.399 62.5658 154.375 64.7202V73.6335C154.375 76.3324 154.873 78.6643 155.867 80.6293C156.885 82.5942 158.317 84.1094 160.164 85.1747C162.01 86.2401 164.2 86.7727 166.733 86.7727C168.414 86.7727 169.953 86.536 171.35 86.0625C172.747 85.589 173.942 84.8788 174.936 83.9318C175.931 82.9848 176.688 81.8248 177.209 80.4517L191.201 81.375C190.49 84.7367 189.034 87.6723 186.833 90.1818C184.655 92.6676 181.837 94.6089 178.381 96.0057C174.948 97.3788 170.983 98.0653 166.485 98.0653ZM216.52 24.2727V97H201.392V24.2727H216.52ZM243.766 24.2727V97H228.638V24.2727H243.766ZM280.529 98.0653C275.013 98.0653 270.243 96.8935 266.218 94.5497C262.217 92.1823 259.128 88.8916 256.95 84.6776C254.772 80.4399 253.683 75.5275 253.683 69.9403C253.683 64.3059 254.772 59.3816 256.95 55.1676C259.128 50.9299 262.217 47.6392 266.218 45.2955C270.243 42.928 275.013 41.7443 280.529 41.7443C286.046 41.7443 290.804 42.928 294.805 45.2955C298.83 47.6392 301.931 50.9299 304.109 55.1676C306.287 59.3816 307.376 64.3059 307.376 69.9403C307.376 75.5275 306.287 80.4399 304.109 84.6776C301.931 88.8916 298.83 92.1823 294.805 94.5497C290.804 96.8935 286.046 98.0653 280.529 98.0653ZM280.6 86.3466C283.11 86.3466 285.205 85.6364 286.886 84.2159C288.567 82.7718 289.833 80.8068 290.686 78.321C291.562 75.8352 292 73.0062 292 69.8338C292 66.6615 291.562 63.8324 290.686 61.3466C289.833 58.8608 288.567 56.8958 286.886 55.4517C285.205 54.0076 283.11 53.2855 280.6 53.2855C278.067 53.2855 275.937 54.0076 274.208 55.4517C272.504 56.8958 271.214 58.8608 270.338 61.3466C269.485 63.8324 269.059 66.6615 269.059 69.8338C269.059 73.0062 269.485 75.8352 270.338 78.321C271.214 80.8068 272.504 82.7718 274.208 84.2159C275.937 85.6364 278.067 86.3466 280.6 86.3466ZM351.117 97L336.273 42.4545H351.579L360.031 79.1023H360.528L369.335 42.4545H384.356L393.305 78.8892H393.766L402.076 42.4545H417.346L402.538 97H386.522L377.147 62.696H376.472L367.097 97H351.117ZM448.694 98.0653C443.177 98.0653 438.407 96.8935 434.382 94.5497C430.382 92.1823 427.292 88.8916 425.114 84.6776C422.936 80.4399 421.847 75.5275 421.847 69.9403C421.847 64.3059 422.936 59.3816 425.114 55.1676C427.292 50.9299 430.382 47.6392 434.382 45.2955C438.407 42.928 443.177 41.7443 448.694 41.7443C454.21 41.7443 458.968 42.928 462.969 45.2955C466.994 47.6392 470.095 50.9299 472.273 55.1676C474.451 59.3816 475.54 64.3059 475.54 69.9403C475.54 75.5275 474.451 80.4399 472.273 84.6776C470.095 88.8916 466.994 92.1823 462.969 94.5497C458.968 96.8935 454.21 98.0653 448.694 98.0653ZM448.765 86.3466C451.274 86.3466 453.369 85.6364 455.05 84.2159C456.731 82.7718 457.998 80.8068 458.85 78.321C459.726 75.8352 460.164 73.0062 460.164 69.8338C460.164 66.6615 459.726 63.8324 458.85 61.3466C457.998 58.8608 456.731 56.8958 455.05 55.4517C453.369 54.0076 451.274 53.2855 448.765 53.2855C446.231 53.2855 444.101 54.0076 442.373 55.4517C440.668 56.8958 439.378 58.8608 438.502 61.3466C437.65 63.8324 437.223 66.6615 437.223 69.8338C437.223 73.0062 437.65 75.8352 438.502 78.321C439.378 80.8068 440.668 82.7718 442.373 84.2159C444.101 85.6364 446.231 86.3466 448.765 86.3466ZM485.377 97V42.4545H500.043V51.9716H500.611C501.605 48.5862 503.275 46.0294 505.618 44.3011C507.962 42.5492 510.661 41.6733 513.715 41.6733C514.472 41.6733 515.289 41.7206 516.165 41.8153C517.041 41.91 517.81 42.0402 518.473 42.206V55.6293C517.763 55.4162 516.781 55.2268 515.526 55.0611C514.271 54.8954 513.123 54.8125 512.081 54.8125C509.856 54.8125 507.867 55.2978 506.115 56.2685C504.387 57.2154 503.014 58.5412 501.996 60.2457C501.002 61.9503 500.505 63.9152 500.505 66.1406V97H485.377ZM541.423 24.2727V97H526.295V24.2727H541.423ZM573.64 97.8878C569.497 97.8878 565.745 96.8224 562.383 94.6918C559.045 92.5374 556.394 89.3769 554.429 85.2102C552.487 81.0199 551.517 75.8826 551.517 69.7983C551.517 63.5483 552.523 58.3518 554.535 54.2088C556.547 50.0421 559.223 46.929 562.561 44.8693C565.922 42.786 569.604 41.7443 573.605 41.7443C576.659 41.7443 579.204 42.2652 581.24 43.3068C583.299 44.3248 584.957 45.6032 586.211 47.142C587.49 48.6572 588.46 50.1487 589.123 51.6165H589.585V24.2727H604.677V97H589.762V88.2642H589.123C588.413 89.7794 587.407 91.2827 586.105 92.7741C584.826 94.242 583.157 95.4612 581.098 96.4318C579.062 97.4025 576.576 97.8878 573.64 97.8878ZM578.434 85.8494C580.873 85.8494 582.932 85.1866 584.613 83.8608C586.318 82.5114 587.62 80.6293 588.52 78.2145C589.443 75.7997 589.904 72.9706 589.904 69.7273C589.904 66.4839 589.455 63.6667 588.555 61.2756C587.655 58.8845 586.353 57.0379 584.649 55.7358C582.944 54.4337 580.873 53.7827 578.434 53.7827C575.949 53.7827 573.853 54.4574 572.149 55.8068C570.444 57.1562 569.154 59.0265 568.278 61.4176C567.402 63.8087 566.964 66.5786 566.964 69.7273C566.964 72.8996 567.402 75.705 568.278 78.1435C569.178 80.5582 570.468 82.4522 572.149 83.8253C573.853 85.1747 575.949 85.8494 578.434 85.8494ZM651.02 97L636.176 42.4545H651.481L659.933 79.1023H660.43L669.237 42.4545H684.258L693.207 78.8892H693.669L701.978 42.4545H717.248L702.44 97H686.424L677.049 62.696H676.375L667 97H651.02ZM748.596 98.0653C743.08 98.0653 738.309 96.8935 734.285 94.5497C730.284 92.1823 727.194 88.8916 725.016 84.6776C722.838 80.4399 721.749 75.5275 721.749 69.9403C721.749 64.3059 722.838 59.3816 725.016 55.1676C727.194 50.9299 730.284 47.6392 734.285 45.2955C738.309 42.928 743.08 41.7443 748.596 41.7443C754.112 41.7443 758.871 42.928 762.871 45.2955C766.896 47.6392 769.997 50.9299 772.175 55.1676C774.353 59.3816 775.442 64.3059 775.442 69.9403C775.442 75.5275 774.353 80.4399 772.175 84.6776C769.997 88.8916 766.896 92.1823 762.871 94.5497C758.871 96.8935 754.112 98.0653 748.596 98.0653ZM748.667 86.3466C751.176 86.3466 753.272 85.6364 754.952 84.2159C756.633 82.7718 757.9 80.8068 758.752 78.321C759.628 75.8352 760.066 73.0062 760.066 69.8338C760.066 66.6615 759.628 63.8324 758.752 61.3466C757.9 58.8608 756.633 56.8958 754.952 55.4517C753.272 54.0076 751.176 53.2855 748.667 53.2855C746.134 53.2855 744.003 54.0076 742.275 55.4517C740.57 56.8958 739.28 58.8608 738.404 61.3466C737.552 63.8324 737.126 66.6615 737.126 69.8338C737.126 73.0062 737.552 75.8352 738.404 78.321C739.28 80.8068 740.57 82.7718 742.275 84.2159C744.003 85.6364 746.134 86.3466 748.667 86.3466ZM785.279 97V42.4545H799.945V51.9716H800.513C801.508 48.5862 803.177 46.0294 805.521 44.3011C807.864 42.5492 810.563 41.6733 813.617 41.6733C814.375 41.6733 815.192 41.7206 816.067 41.8153C816.943 41.91 817.713 42.0402 818.376 42.206V55.6293C817.665 55.4162 816.683 55.2268 815.428 55.0611C814.174 54.8954 813.025 54.8125 811.984 54.8125C809.758 54.8125 807.77 55.2978 806.018 56.2685C804.29 57.2154 802.916 58.5412 801.898 60.2457C800.904 61.9503 800.407 63.9152 800.407 66.1406V97H785.279ZM841.325 24.2727V97H826.197V24.2727H841.325ZM873.543 97.8878C869.4 97.8878 865.647 96.8224 862.286 94.6918C858.947 92.5374 856.296 89.3769 854.331 85.2102C852.39 81.0199 851.419 75.8826 851.419 69.7983C851.419 63.5483 852.425 58.3518 854.438 54.2088C856.45 50.0421 859.125 46.929 862.463 44.8693C865.825 42.786 869.506 41.7443 873.507 41.7443C876.561 41.7443 879.106 42.2652 881.142 43.3068C883.202 44.3248 884.859 45.6032 886.114 47.142C887.392 48.6572 888.363 50.1487 889.026 51.6165H889.487V24.2727H904.58V97H889.665V88.2642H889.026C888.315 89.7794 887.309 91.2827 886.007 92.7741C884.729 94.242 883.06 95.4612 881 96.4318C878.964 97.4025 876.478 97.8878 873.543 97.8878ZM878.337 85.8494C880.775 85.8494 882.835 85.1866 884.516 83.8608C886.22 82.5114 887.522 80.6293 888.422 78.2145C889.345 75.7997 889.807 72.9706 889.807 69.7273C889.807 66.4839 889.357 63.6667 888.457 61.2756C887.558 58.8845 886.256 57.0379 884.551 55.7358C882.847 54.4337 880.775 53.7827 878.337 53.7827C875.851 53.7827 873.756 54.4574 872.051 55.8068C870.347 57.1562 869.056 59.0265 868.18 61.4176C867.304 63.8087 866.866 66.5786 866.866 69.7273C866.866 72.8996 867.304 75.705 868.18 78.1435C869.08 80.5582 870.37 82.4522 872.051 83.8253C873.756 85.1747 875.851 85.8494 878.337 85.8494ZM929.695 24.2727V31.9432C929.695 34.1212 929.269 36.3466 928.417 38.6193C927.588 40.8684 926.475 42.9991 925.078 45.0114C923.682 47 922.155 48.6927 920.498 50.0895L913.821 46.1477C915.005 44.2775 916.047 42.206 916.946 39.9332C917.87 37.6605 918.331 35.0208 918.331 32.0142V24.2727H929.695ZM947.557 24.2727V31.9432C947.557 34.1212 947.131 36.3466 946.279 38.6193C945.45 40.8684 944.337 42.9991 942.941 45.0114C941.544 47 940.005 48.6927 938.324 50.0895L931.648 46.1477C932.855 44.2775 933.909 42.206 934.809 39.9332C935.732 37.6605 936.194 35.0208 936.194 32.0142V24.2727H947.557Z" fill="#006CA9"/>
<path d="M353.797 266L338.953 211.455H354.259L362.71 248.102H363.207L372.014 211.455H387.036L395.984 247.889H396.446L404.756 211.455H420.026L405.217 266H389.202L379.827 231.696H379.152L369.777 266H353.797ZM451.373 267.065C445.857 267.065 441.087 265.893 437.062 263.55C433.061 261.182 429.972 257.892 427.794 253.678C425.616 249.44 424.527 244.527 424.527 238.94C424.527 233.306 425.616 228.382 427.794 224.168C429.972 219.93 433.061 216.639 437.062 214.295C441.087 211.928 445.857 210.744 451.373 210.744C456.889 210.744 461.648 211.928 465.649 214.295C469.673 216.639 472.775 219.93 474.953 224.168C477.131 228.382 478.22 233.306 478.22 238.94C478.22 244.527 477.131 249.44 474.953 253.678C472.775 257.892 469.673 261.182 465.649 263.55C461.648 265.893 456.889 267.065 451.373 267.065ZM451.444 255.347C453.954 255.347 456.049 254.636 457.73 253.216C459.411 251.772 460.677 249.807 461.529 247.321C462.405 244.835 462.843 242.006 462.843 238.834C462.843 235.661 462.405 232.832 461.529 230.347C460.677 227.861 459.411 225.896 457.73 224.452C456.049 223.008 453.954 222.286 451.444 222.286C448.911 222.286 446.78 223.008 445.052 224.452C443.348 225.896 442.057 227.861 441.181 230.347C440.329 232.832 439.903 235.661 439.903 238.834C439.903 242.006 440.329 244.835 441.181 247.321C442.057 249.807 443.348 251.772 445.052 253.216C446.78 254.636 448.911 255.347 451.444 255.347ZM488.056 266V211.455H502.723V220.972H503.291C504.285 217.586 505.954 215.029 508.298 213.301C510.642 211.549 513.341 210.673 516.395 210.673C517.152 210.673 517.969 210.721 518.845 210.815C519.721 210.91 520.49 211.04 521.153 211.206V224.629C520.443 224.416 519.46 224.227 518.206 224.061C516.951 223.895 515.803 223.812 514.761 223.812C512.536 223.812 510.547 224.298 508.795 225.268C507.067 226.215 505.694 227.541 504.676 229.246C503.681 230.95 503.184 232.915 503.184 235.141V266H488.056ZM544.102 193.273V266H528.974V193.273H544.102ZM576.32 266.888C572.177 266.888 568.425 265.822 565.063 263.692C561.725 261.537 559.073 258.377 557.108 254.21C555.167 250.02 554.196 244.883 554.196 238.798C554.196 232.548 555.203 227.352 557.215 223.209C559.227 219.042 561.902 215.929 565.24 213.869C568.602 211.786 572.283 210.744 576.284 210.744C579.338 210.744 581.883 211.265 583.919 212.307C585.979 213.325 587.636 214.603 588.891 216.142C590.169 217.657 591.14 219.149 591.803 220.616H592.265V193.273H607.357V266H592.442V257.264H591.803C591.093 258.779 590.087 260.283 588.784 261.774C587.506 263.242 585.837 264.461 583.777 265.432C581.741 266.402 579.256 266.888 576.32 266.888ZM581.114 254.849C583.552 254.849 585.612 254.187 587.293 252.861C588.998 251.511 590.3 249.629 591.199 247.214C592.123 244.8 592.584 241.971 592.584 238.727C592.584 235.484 592.134 232.667 591.235 230.276C590.335 227.884 589.033 226.038 587.328 224.736C585.624 223.434 583.552 222.783 581.114 222.783C578.628 222.783 576.533 223.457 574.828 224.807C573.124 226.156 571.834 228.027 570.958 230.418C570.082 232.809 569.644 235.579 569.644 238.727C569.644 241.9 570.082 244.705 570.958 247.143C571.857 249.558 573.148 251.452 574.828 252.825C576.533 254.175 578.628 254.849 581.114 254.849ZM653.699 266L638.855 211.455H654.161L662.613 248.102H663.11L671.917 211.455H686.938L695.887 247.889H696.348L704.658 211.455H719.928L705.12 266H689.104L679.729 231.696H679.054L669.679 266H653.699ZM751.276 267.065C745.759 267.065 740.989 265.893 736.964 263.55C732.964 261.182 729.874 257.892 727.696 253.678C725.518 249.44 724.429 244.527 724.429 238.94C724.429 233.306 725.518 228.382 727.696 224.168C729.874 219.93 732.964 216.639 736.964 214.295C740.989 211.928 745.759 210.744 751.276 210.744C756.792 210.744 761.55 211.928 765.551 214.295C769.576 216.639 772.677 219.93 774.855 224.168C777.033 228.382 778.122 233.306 778.122 238.94C778.122 244.527 777.033 249.44 774.855 253.678C772.677 257.892 769.576 261.182 765.551 263.55C761.55 265.893 756.792 267.065 751.276 267.065ZM751.347 255.347C753.856 255.347 755.951 254.636 757.632 253.216C759.313 251.772 760.58 249.807 761.432 247.321C762.308 244.835 762.746 242.006 762.746 238.834C762.746 235.661 762.308 232.832 761.432 230.347C760.58 227.861 759.313 225.896 757.632 224.452C755.951 223.008 753.856 222.286 751.347 222.286C748.813 222.286 746.683 223.008 744.955 224.452C743.25 225.896 741.96 227.861 741.084 230.347C740.232 232.832 739.805 235.661 739.805 238.834C739.805 242.006 740.232 244.835 741.084 247.321C741.96 249.807 743.25 251.772 744.955 253.216C746.683 254.636 748.813 255.347 751.347 255.347ZM787.959 266V211.455H802.625V220.972H803.193C804.188 217.586 805.857 215.029 808.2 213.301C810.544 211.549 813.243 210.673 816.297 210.673C817.054 210.673 817.871 210.721 818.747 210.815C819.623 210.91 820.393 211.04 821.055 211.206V224.629C820.345 224.416 819.363 224.227 818.108 224.061C816.853 223.895 815.705 223.812 814.663 223.812C812.438 223.812 810.449 224.298 808.697 225.268C806.969 226.215 805.596 227.541 804.578 229.246C803.584 230.95 803.087 232.915 803.087 235.141V266H787.959ZM844.005 193.273V266H828.877V193.273H844.005ZM876.222 266.888C872.079 266.888 868.327 265.822 864.965 263.692C861.627 261.537 858.976 258.377 857.011 254.21C855.069 250.02 854.099 244.883 854.099 238.798C854.099 232.548 855.105 227.352 857.117 223.209C859.129 219.042 861.805 215.929 865.143 213.869C868.504 211.786 872.186 210.744 876.187 210.744C879.241 210.744 881.786 211.265 883.822 212.307C885.881 213.325 887.539 214.603 888.793 216.142C890.072 217.657 891.042 219.149 891.705 220.616H892.167V193.273H907.259V266H892.344V257.264H891.705C890.995 258.779 889.989 260.283 888.687 261.774C887.408 263.242 885.739 264.461 883.68 265.432C881.644 266.402 879.158 266.888 876.222 266.888ZM881.016 254.849C883.455 254.849 885.514 254.187 887.195 252.861C888.9 251.511 890.202 249.629 891.102 247.214C892.025 244.8 892.487 241.971 892.487 238.727C892.487 235.484 892.037 232.667 891.137 230.276C890.237 227.884 888.935 226.038 887.231 224.736C885.526 223.434 883.455 222.783 881.016 222.783C878.531 222.783 876.435 223.457 874.731 224.807C873.026 226.156 871.736 228.027 870.86 230.418C869.984 232.809 869.546 235.579 869.546 238.727C869.546 241.9 869.984 244.705 870.86 247.143C871.76 249.558 873.05 251.452 874.731 252.825C876.435 254.175 878.531 254.849 881.016 254.849Z" fill="#737370"/>
<path d="M337 233.259H913.616V240.077H337V233.259Z" fill="#737370"/>
<path d="M269.321 442V369.273H298.014C303.53 369.273 308.23 370.326 312.112 372.433C315.995 374.517 318.954 377.417 320.99 381.134C323.05 384.827 324.08 389.088 324.08 393.918C324.08 398.747 323.038 403.009 320.955 406.702C318.871 410.395 315.853 413.271 311.899 415.331C307.969 417.391 303.211 418.42 297.624 418.42H279.335V406.098H295.138C298.097 406.098 300.536 405.589 302.453 404.571C304.394 403.529 305.839 402.097 306.786 400.274C307.756 398.428 308.241 396.309 308.241 393.918C308.241 391.503 307.756 389.396 306.786 387.597C305.839 385.774 304.394 384.365 302.453 383.371C300.512 382.353 298.05 381.844 295.067 381.844H284.697V442H269.321ZM343.123 462.455C341.205 462.455 339.406 462.301 337.725 461.993C336.068 461.709 334.694 461.342 333.605 460.892L337.015 449.599C338.79 450.144 340.388 450.44 341.809 450.487C343.253 450.535 344.496 450.203 345.537 449.493C346.603 448.783 347.467 447.575 348.13 445.871L349.017 443.562L329.451 387.455H345.36L356.652 427.511H357.221L368.62 387.455H384.635L363.435 447.895C362.417 450.83 361.032 453.387 359.28 455.565C357.552 457.767 355.362 459.46 352.711 460.643C350.059 461.851 346.863 462.455 343.123 462.455ZM421.39 387.455V398.818H388.542V387.455H421.39ZM395.999 374.386H411.127V425.239C411.127 426.635 411.34 427.724 411.766 428.506C412.192 429.263 412.784 429.796 413.542 430.104C414.323 430.411 415.222 430.565 416.24 430.565C416.951 430.565 417.661 430.506 418.371 430.388C419.081 430.246 419.626 430.139 420.005 430.068L422.384 441.325C421.626 441.562 420.561 441.834 419.188 442.142C417.815 442.473 416.146 442.675 414.181 442.746C410.535 442.888 407.339 442.402 404.593 441.29C401.87 440.177 399.751 438.449 398.236 436.105C396.721 433.761 395.975 430.802 395.999 427.227V374.386ZM447.544 410.466V442H432.416V369.273H447.118V397.078H447.757C448.988 393.858 450.976 391.337 453.723 389.514C456.469 387.668 459.913 386.744 464.056 386.744C467.844 386.744 471.147 387.573 473.964 389.23C476.805 390.864 479.007 393.219 480.569 396.297C482.155 399.351 482.937 403.009 482.913 407.27V442H467.785V409.969C467.809 406.607 466.957 403.991 465.228 402.121C463.524 400.25 461.133 399.315 458.055 399.315C455.995 399.315 454.172 399.753 452.586 400.629C451.024 401.505 449.793 402.784 448.893 404.464C448.017 406.122 447.567 408.122 447.544 410.466ZM519.463 443.065C513.947 443.065 509.177 441.893 505.152 439.55C501.151 437.182 498.062 433.892 495.884 429.678C493.705 425.44 492.616 420.527 492.616 414.94C492.616 409.306 493.705 404.382 495.884 400.168C498.062 395.93 501.151 392.639 505.152 390.295C509.177 387.928 513.947 386.744 519.463 386.744C524.979 386.744 529.738 387.928 533.739 390.295C537.763 392.639 540.865 395.93 543.043 400.168C545.221 404.382 546.31 409.306 546.31 414.94C546.31 420.527 545.221 425.44 543.043 429.678C540.865 433.892 537.763 437.182 533.739 439.55C529.738 441.893 524.979 443.065 519.463 443.065ZM519.534 431.347C522.044 431.347 524.139 430.636 525.82 429.216C527.5 427.772 528.767 425.807 529.619 423.321C530.495 420.835 530.933 418.006 530.933 414.834C530.933 411.661 530.495 408.832 529.619 406.347C528.767 403.861 527.5 401.896 525.82 400.452C524.139 399.008 522.044 398.286 519.534 398.286C517.001 398.286 514.87 399.008 513.142 400.452C511.438 401.896 510.147 403.861 509.271 406.347C508.419 408.832 507.993 411.661 507.993 414.834C507.993 418.006 508.419 420.835 509.271 423.321C510.147 425.807 511.438 427.772 513.142 429.216C514.87 430.636 517.001 431.347 519.534 431.347ZM571.274 410.466V442H556.146V387.455H570.564V397.078H571.203C572.411 393.906 574.435 391.396 577.276 389.55C580.116 387.679 583.561 386.744 587.609 386.744C591.397 386.744 594.7 387.573 597.517 389.23C600.334 390.887 602.524 393.255 604.087 396.332C605.649 399.386 606.43 403.032 606.43 407.27V442H591.303V409.969C591.326 406.631 590.474 404.027 588.746 402.156C587.018 400.262 584.638 399.315 581.608 399.315C579.572 399.315 577.773 399.753 576.21 400.629C574.671 401.505 573.464 402.784 572.588 404.464C571.736 406.122 571.298 408.122 571.274 410.466ZM641.782 442V369.273H670.475C675.991 369.273 680.691 370.326 684.573 372.433C688.456 374.517 691.415 377.417 693.451 381.134C695.511 384.827 696.54 389.088 696.54 393.918C696.54 398.747 695.499 403.009 693.415 406.702C691.332 410.395 688.314 413.271 684.36 415.331C680.43 417.391 675.672 418.42 670.085 418.42H651.796V406.098H667.599C670.558 406.098 672.996 405.589 674.914 404.571C676.855 403.529 678.299 402.097 679.246 400.274C680.217 398.428 680.702 396.309 680.702 393.918C680.702 391.503 680.217 389.396 679.246 387.597C678.299 385.774 676.855 384.365 674.914 383.371C672.973 382.353 670.511 381.844 667.528 381.844H657.158V442H641.782ZM715.583 462.455C713.666 462.455 711.867 462.301 710.186 461.993C708.529 461.709 707.155 461.342 706.066 460.892L709.475 449.599C711.251 450.144 712.849 450.44 714.27 450.487C715.714 450.535 716.957 450.203 717.998 449.493C719.064 448.783 719.928 447.575 720.591 445.871L721.478 443.562L701.912 387.455H717.821L729.113 427.511H729.681L741.081 387.455H757.096L735.896 447.895C734.878 450.83 733.493 453.387 731.741 455.565C730.013 457.767 727.823 459.46 725.172 460.643C722.52 461.851 719.324 462.455 715.583 462.455ZM793.85 387.455V398.818H761.002V387.455H793.85ZM768.46 374.386H783.588V425.239C783.588 426.635 783.801 427.724 784.227 428.506C784.653 429.263 785.245 429.796 786.002 430.104C786.784 430.411 787.683 430.565 788.701 430.565C789.412 430.565 790.122 430.506 790.832 430.388C791.542 430.246 792.087 430.139 792.466 430.068L794.845 441.325C794.087 441.562 793.022 441.834 791.649 442.142C790.276 442.473 788.607 442.675 786.642 442.746C782.996 442.888 779.8 442.402 777.054 441.29C774.331 440.177 772.212 438.449 770.697 436.105C769.182 433.761 768.436 430.802 768.46 427.227V374.386ZM820.005 410.466V442H804.877V369.273H819.578V397.078H820.218C821.449 393.858 823.437 391.337 826.184 389.514C828.93 387.668 832.374 386.744 836.517 386.744C840.305 386.744 843.608 387.573 846.425 389.23C849.266 390.864 851.468 393.219 853.03 396.297C854.616 399.351 855.398 403.009 855.374 407.27V442H840.246V409.969C840.27 406.607 839.417 403.991 837.689 402.121C835.985 400.25 833.594 399.315 830.516 399.315C828.456 399.315 826.633 399.753 825.047 400.629C823.485 401.505 822.254 402.784 821.354 404.464C820.478 406.122 820.028 408.122 820.005 410.466ZM891.924 443.065C886.408 443.065 881.638 441.893 877.613 439.55C873.612 437.182 870.522 433.892 868.344 429.678C866.166 425.44 865.077 420.527 865.077 414.94C865.077 409.306 866.166 404.382 868.344 400.168C870.522 395.93 873.612 392.639 877.613 390.295C881.638 387.928 886.408 386.744 891.924 386.744C897.44 386.744 902.199 387.928 906.2 390.295C910.224 392.639 913.326 395.93 915.504 400.168C917.682 404.382 918.771 409.306 918.771 414.94C918.771 420.527 917.682 425.44 915.504 429.678C913.326 433.892 910.224 437.182 906.2 439.55C902.199 441.893 897.44 443.065 891.924 443.065ZM891.995 431.347C894.504 431.347 896.6 430.636 898.281 429.216C899.961 427.772 901.228 425.807 902.08 423.321C902.956 420.835 903.394 418.006 903.394 414.834C903.394 411.661 902.956 408.832 902.08 406.347C901.228 403.861 899.961 401.896 898.281 400.452C896.6 399.008 894.504 398.286 891.995 398.286C889.462 398.286 887.331 399.008 885.603 400.452C883.898 401.896 882.608 403.861 881.732 406.347C880.88 408.832 880.454 411.661 880.454 414.834C880.454 418.006 880.88 420.835 881.732 423.321C882.608 425.807 883.898 427.772 885.603 429.216C887.331 430.636 889.462 431.347 891.995 431.347ZM943.735 410.466V442H928.607V387.455H943.025V397.078H943.664C944.871 393.906 946.896 391.396 949.737 389.55C952.577 387.679 956.022 386.744 960.07 386.744C963.858 386.744 967.161 387.573 969.978 389.23C972.795 390.887 974.985 393.255 976.548 396.332C978.11 399.386 978.891 403.032 978.891 407.27V442H963.763V409.969C963.787 406.631 962.935 404.027 961.207 402.156C959.478 400.262 957.099 399.315 954.069 399.315C952.033 399.315 950.234 399.753 948.671 400.629C947.132 401.505 945.925 402.784 945.049 404.464C944.197 406.122 943.759 408.122 943.735 410.466Z" fill="#737370"/>
<path d="M5.50426 585V577.33C5.50426 575.152 5.9304 572.926 6.78267 570.653C7.63494 568.381 8.75947 566.238 10.1562 564.226C11.553 562.214 13.0682 560.533 14.7017 559.183L21.3778 563.125C20.0521 565.208 18.9631 567.386 18.1108 569.659C17.2822 571.932 16.8679 574.465 16.8679 577.259V585H5.50426ZM23.4375 585V577.33C23.4375 575.152 23.8636 572.926 24.7159 570.653C25.5682 568.381 26.6927 566.238 28.0895 564.226C29.4863 562.214 31.0014 560.533 32.6349 559.183L39.3111 563.125C37.9853 565.208 36.8963 567.386 36.044 569.659C35.2154 571.932 34.8011 574.465 34.8011 577.259V585H23.4375ZM63.3523 603.466V635H48.2244V562.273H62.9261V590.078H63.5653C64.7964 586.858 66.785 584.337 69.5312 582.514C72.2775 580.668 75.7221 579.744 79.8651 579.744C83.6529 579.744 86.9555 580.573 89.7727 582.23C92.6136 583.864 94.8153 586.219 96.3778 589.297C97.964 592.351 98.7453 596.009 98.7216 600.27V635H83.5938V602.969C83.6174 599.607 82.7652 596.991 81.0369 595.121C79.3324 593.25 76.9413 592.315 73.8636 592.315C71.804 592.315 69.9811 592.753 68.3949 593.629C66.8324 594.505 65.6013 595.784 64.7017 597.464C63.8258 599.122 63.3759 601.122 63.3523 603.466ZM135.485 636.065C129.874 636.065 125.044 634.929 120.996 632.656C116.971 630.36 113.87 627.116 111.692 622.926C109.514 618.712 108.425 613.729 108.425 607.976C108.425 602.365 109.514 597.441 111.692 593.203C113.87 588.965 116.936 585.663 120.89 583.295C124.867 580.928 129.531 579.744 134.881 579.744C138.48 579.744 141.829 580.324 144.931 581.484C148.056 582.621 150.778 584.337 153.098 586.634C155.442 588.93 157.265 591.818 158.567 595.298C159.869 598.755 160.52 602.803 160.52 607.443V611.598H114.462V602.223H146.28C146.28 600.045 145.807 598.116 144.86 596.435C143.913 594.754 142.599 593.44 140.918 592.493C139.261 591.522 137.331 591.037 135.13 591.037C132.833 591.037 130.797 591.57 129.022 592.635C127.27 593.677 125.897 595.085 124.902 596.861C123.908 598.613 123.399 600.566 123.375 602.72V611.634C123.375 614.332 123.873 616.664 124.867 618.629C125.885 620.594 127.317 622.109 129.164 623.175C131.01 624.24 133.2 624.773 135.733 624.773C137.414 624.773 138.953 624.536 140.35 624.062C141.747 623.589 142.942 622.879 143.936 621.932C144.931 620.985 145.688 619.825 146.209 618.452L160.201 619.375C159.49 622.737 158.034 625.672 155.833 628.182C153.655 630.668 150.837 632.609 147.381 634.006C143.948 635.379 139.983 636.065 135.485 636.065ZM185.52 562.273V635H170.392V562.273H185.52ZM212.766 562.273V635H197.638V562.273H212.766ZM249.529 636.065C244.013 636.065 239.243 634.893 235.218 632.55C231.217 630.182 228.128 626.892 225.95 622.678C223.772 618.44 222.683 613.527 222.683 607.94C222.683 602.306 223.772 597.382 225.95 593.168C228.128 588.93 231.217 585.639 235.218 583.295C239.243 580.928 244.013 579.744 249.529 579.744C255.046 579.744 259.804 580.928 263.805 583.295C267.83 585.639 270.931 588.93 273.109 593.168C275.287 597.382 276.376 602.306 276.376 607.94C276.376 613.527 275.287 618.44 273.109 622.678C270.931 626.892 267.83 630.182 263.805 632.55C259.804 634.893 255.046 636.065 249.529 636.065ZM249.6 624.347C252.11 624.347 254.205 623.636 255.886 622.216C257.567 620.772 258.833 618.807 259.686 616.321C260.562 613.835 261 611.006 261 607.834C261 604.661 260.562 601.832 259.686 599.347C258.833 596.861 257.567 594.896 255.886 593.452C254.205 592.008 252.11 591.286 249.6 591.286C247.067 591.286 244.937 592.008 243.208 593.452C241.504 594.896 240.214 596.861 239.338 599.347C238.485 601.832 238.059 604.661 238.059 607.834C238.059 611.006 238.485 613.835 239.338 616.321C240.214 618.807 241.504 620.772 243.208 622.216C244.937 623.636 247.067 624.347 249.6 624.347ZM309.641 635V562.273H338.335C343.851 562.273 348.55 563.326 352.433 565.433C356.315 567.517 359.274 570.417 361.31 574.134C363.37 577.827 364.4 582.088 364.4 586.918C364.4 591.747 363.358 596.009 361.275 599.702C359.192 603.395 356.173 606.271 352.219 608.331C348.29 610.391 343.531 611.42 337.944 611.42H319.656V599.098H335.458C338.417 599.098 340.856 598.589 342.773 597.571C344.715 596.529 346.159 595.097 347.106 593.274C348.076 591.428 348.562 589.309 348.562 586.918C348.562 584.503 348.076 582.396 347.106 580.597C346.159 578.774 344.715 577.365 342.773 576.371C340.832 575.353 338.37 574.844 335.387 574.844H325.018V635H309.641ZM383.443 655.455C381.525 655.455 379.726 655.301 378.045 654.993C376.388 654.709 375.015 654.342 373.926 653.892L377.335 642.599C379.11 643.144 380.708 643.44 382.129 643.487C383.573 643.535 384.816 643.203 385.858 642.493C386.923 641.783 387.787 640.575 388.45 638.871L389.338 636.562L369.771 580.455H385.68L396.973 620.511H397.541L408.94 580.455H424.956L403.755 640.895C402.737 643.83 401.352 646.387 399.6 648.565C397.872 650.767 395.682 652.46 393.031 653.643C390.379 654.851 387.183 655.455 383.443 655.455ZM461.71 580.455V591.818H428.862V580.455H461.71ZM436.319 567.386H451.447V618.239C451.447 619.635 451.66 620.724 452.086 621.506C452.512 622.263 453.104 622.796 453.862 623.104C454.643 623.411 455.543 623.565 456.561 623.565C457.271 623.565 457.981 623.506 458.691 623.388C459.402 623.246 459.946 623.139 460.325 623.068L462.704 634.325C461.947 634.562 460.881 634.834 459.508 635.142C458.135 635.473 456.466 635.675 454.501 635.746C450.855 635.888 447.659 635.402 444.913 634.29C442.19 633.177 440.072 631.449 438.556 629.105C437.041 626.761 436.296 623.802 436.319 620.227V567.386ZM487.864 603.466V635H472.736V562.273H487.438V590.078H488.077C489.308 586.858 491.297 584.337 494.043 582.514C496.789 580.668 500.234 579.744 504.377 579.744C508.165 579.744 511.467 580.573 514.284 582.23C517.125 583.864 519.327 586.219 520.89 589.297C522.476 592.351 523.257 596.009 523.233 600.27V635H508.105V602.969C508.129 599.607 507.277 596.991 505.549 595.121C503.844 593.25 501.453 592.315 498.375 592.315C496.316 592.315 494.493 592.753 492.907 593.629C491.344 594.505 490.113 595.784 489.213 597.464C488.337 599.122 487.888 601.122 487.864 603.466ZM559.783 636.065C554.267 636.065 549.497 634.893 545.472 632.55C541.471 630.182 538.382 626.892 536.204 622.678C534.026 618.44 532.937 613.527 532.937 607.94C532.937 602.306 534.026 597.382 536.204 593.168C538.382 588.93 541.471 585.639 545.472 583.295C549.497 580.928 554.267 579.744 559.783 579.744C565.299 579.744 570.058 580.928 574.059 583.295C578.084 585.639 581.185 588.93 583.363 593.168C585.541 597.382 586.63 602.306 586.63 607.94C586.63 613.527 585.541 618.44 583.363 622.678C581.185 626.892 578.084 630.182 574.059 632.55C570.058 634.893 565.299 636.065 559.783 636.065ZM559.854 624.347C562.364 624.347 564.459 623.636 566.14 622.216C567.821 620.772 569.087 618.807 569.94 616.321C570.816 613.835 571.254 611.006 571.254 607.834C571.254 604.661 570.816 601.832 569.94 599.347C569.087 596.861 567.821 594.896 566.14 593.452C564.459 592.008 562.364 591.286 559.854 591.286C557.321 591.286 555.191 592.008 553.462 593.452C551.758 594.896 550.468 596.861 549.592 599.347C548.739 601.832 548.313 604.661 548.313 607.834C548.313 611.006 548.739 613.835 549.592 616.321C550.468 618.807 551.758 620.772 553.462 622.216C555.191 623.636 557.321 624.347 559.854 624.347ZM611.594 603.466V635H596.467V580.455H610.884V590.078H611.523C612.731 586.906 614.755 584.396 617.596 582.55C620.437 580.679 623.881 579.744 627.93 579.744C631.718 579.744 635.02 580.573 637.837 582.23C640.655 583.887 642.844 586.255 644.407 589.332C645.969 592.386 646.751 596.032 646.751 600.27V635H631.623V602.969C631.647 599.631 630.794 597.027 629.066 595.156C627.338 593.262 624.959 592.315 621.928 592.315C619.892 592.315 618.093 592.753 616.531 593.629C614.992 594.505 613.784 595.784 612.908 597.464C612.056 599.122 611.618 601.122 611.594 603.466ZM682.102 635V562.273H710.795C716.312 562.273 721.011 563.326 724.893 565.433C728.776 567.517 731.735 570.417 733.771 574.134C735.831 577.827 736.861 582.088 736.861 586.918C736.861 591.747 735.819 596.009 733.736 599.702C731.652 603.395 728.634 606.271 724.68 608.331C720.75 610.391 715.992 611.42 710.405 611.42H692.116V599.098H707.919C710.878 599.098 713.317 598.589 715.234 597.571C717.176 596.529 718.62 595.097 719.567 593.274C720.537 591.428 721.023 589.309 721.023 586.918C721.023 584.503 720.537 582.396 719.567 580.597C718.62 578.774 717.176 577.365 715.234 576.371C713.293 575.353 710.831 574.844 707.848 574.844H697.479V635H682.102ZM755.904 655.455C753.986 655.455 752.187 655.301 750.506 654.993C748.849 654.709 747.476 654.342 746.387 653.892L749.796 642.599C751.571 643.144 753.169 643.44 754.59 643.487C756.034 643.535 757.277 643.203 758.319 642.493C759.384 641.783 760.248 640.575 760.911 638.871L761.799 636.562L742.232 580.455H758.141L769.434 620.511H770.002L781.401 580.455H797.417L776.216 640.895C775.198 643.83 773.813 646.387 772.061 648.565C770.333 650.767 768.143 652.46 765.492 653.643C762.84 654.851 759.644 655.455 755.904 655.455ZM834.171 580.455V591.818H801.323V580.455H834.171ZM808.78 567.386H823.908V618.239C823.908 619.635 824.121 620.724 824.547 621.506C824.973 622.263 825.565 622.796 826.323 623.104C827.104 623.411 828.004 623.565 829.022 623.565C829.732 623.565 830.442 623.506 831.152 623.388C831.863 623.246 832.407 623.139 832.786 623.068L835.165 634.325C834.408 634.562 833.342 634.834 831.969 635.142C830.596 635.473 828.927 635.675 826.962 635.746C823.316 635.888 820.12 635.402 817.374 634.29C814.651 633.177 812.533 631.449 811.017 629.105C809.502 626.761 808.757 623.802 808.78 620.227V567.386ZM860.325 603.466V635H845.197V562.273H859.899V590.078H860.538C861.769 586.858 863.758 584.337 866.504 582.514C869.25 580.668 872.695 579.744 876.838 579.744C880.626 579.744 883.928 580.573 886.745 582.23C889.586 583.864 891.788 586.219 893.35 589.297C894.937 592.351 895.718 596.009 895.694 600.27V635H880.566V602.969C880.59 599.607 879.738 596.991 878.01 595.121C876.305 593.25 873.914 592.315 870.836 592.315C868.777 592.315 866.954 592.753 865.368 593.629C863.805 594.505 862.574 595.784 861.674 597.464C860.798 599.122 860.349 601.122 860.325 603.466ZM932.244 636.065C926.728 636.065 921.958 634.893 917.933 632.55C913.932 630.182 910.843 626.892 908.665 622.678C906.487 618.44 905.398 613.527 905.398 607.94C905.398 602.306 906.487 597.382 908.665 593.168C910.843 588.93 913.932 585.639 917.933 583.295C921.958 580.928 926.728 579.744 932.244 579.744C937.76 579.744 942.519 580.928 946.52 583.295C950.545 585.639 953.646 588.93 955.824 593.168C958.002 597.382 959.091 602.306 959.091 607.94C959.091 613.527 958.002 618.44 955.824 622.678C953.646 626.892 950.545 630.182 946.52 632.55C942.519 634.893 937.76 636.065 932.244 636.065ZM932.315 624.347C934.825 624.347 936.92 623.636 938.601 622.216C940.282 620.772 941.548 618.807 942.401 616.321C943.277 613.835 943.714 611.006 943.714 607.834C943.714 604.661 943.277 601.832 942.401 599.347C941.548 596.861 940.282 594.896 938.601 593.452C936.92 592.008 934.825 591.286 932.315 591.286C929.782 591.286 927.652 592.008 925.923 593.452C924.219 594.896 922.929 596.861 922.053 599.347C921.2 601.832 920.774 604.661 920.774 607.834C920.774 611.006 921.2 613.835 922.053 616.321C922.929 618.807 924.219 620.772 925.923 622.216C927.652 623.636 929.782 624.347 932.315 624.347ZM984.055 603.466V635H968.928V580.455H983.345V590.078H983.984C985.192 586.906 987.216 584.396 990.057 582.55C992.898 580.679 996.342 579.744 1000.39 579.744C1004.18 579.744 1007.48 580.573 1010.3 582.23C1013.12 583.887 1015.31 586.255 1016.87 589.332C1018.43 592.386 1019.21 596.032 1019.21 600.27V635H1004.08V602.969C1004.11 599.631 1003.26 597.027 1001.53 595.156C999.799 593.262 997.42 592.315 994.389 592.315C992.353 592.315 990.554 592.753 988.991 593.629C987.453 594.505 986.245 595.784 985.369 597.464C984.517 599.122 984.079 601.122 984.055 603.466ZM1043.81 562.273V569.943C1043.81 572.121 1043.39 574.347 1042.53 576.619C1041.71 578.868 1040.59 580.999 1039.2 583.011C1037.8 585 1036.27 586.693 1034.61 588.089L1027.94 584.148C1029.12 582.277 1030.16 580.206 1031.06 577.933C1031.99 575.661 1032.45 573.021 1032.45 570.014V562.273H1043.81ZM1061.67 562.273V569.943C1061.67 572.121 1061.25 574.347 1060.4 576.619C1059.57 578.868 1058.45 580.999 1057.06 583.011C1055.66 585 1054.12 586.693 1052.44 588.089L1045.77 584.148C1046.97 582.277 1048.03 580.206 1048.93 577.933C1049.85 575.661 1050.31 573.021 1050.31 570.014V562.273H1061.67Z" fill="#FA8F00"/>
<path d="M467.167 301.907L471.887 300.353C472.259 300.231 472.65 300.188 473.037 300.228C473.424 300.268 473.8 300.39 474.143 300.587C474.487 300.783 474.791 301.05 475.038 301.373C475.286 301.696 475.472 302.068 475.585 302.468C475.699 302.868 475.738 303.288 475.701 303.705C475.664 304.121 475.551 304.526 475.368 304.895C475.186 305.265 474.937 305.592 474.637 305.858C474.337 306.124 473.991 306.324 473.619 306.446L462.293 310.173C461.92 310.296 461.53 310.338 461.142 310.298C460.755 310.257 460.379 310.135 460.035 309.939C459.692 309.742 459.388 309.474 459.14 309.151C458.893 308.828 458.707 308.455 458.594 308.055L455.129 295.871C455.016 295.471 454.976 295.051 455.014 294.635C455.051 294.218 455.164 293.814 455.347 293.444C455.529 293.075 455.778 292.748 456.078 292.481C456.378 292.215 456.724 292.015 457.096 291.893C457.847 291.646 458.659 291.73 459.352 292.127C460.046 292.523 460.565 293.2 460.794 294.008L462.097 298.598C469.228 286.784 483.373 281.703 495.932 287.239C499.687 288.895 503.06 291.416 505.813 294.625C508.565 297.834 510.63 301.653 511.863 305.813C511.989 306.213 512.04 306.637 512.013 307.059C511.985 307.481 511.88 307.893 511.702 308.271C511.525 308.649 511.28 308.985 510.98 309.259C510.681 309.534 510.334 309.742 509.959 309.87C509.584 309.999 509.189 310.046 508.798 310.009C508.406 309.971 508.025 309.85 507.677 309.653C507.329 309.456 507.021 309.185 506.771 308.859C506.521 308.532 506.335 308.155 506.222 307.749C504.971 303.524 502.634 299.765 499.482 296.907C496.329 294.049 492.49 292.208 488.406 291.597C484.323 290.986 480.162 291.63 476.404 293.454C472.647 295.279 469.442 298.209 467.167 301.907ZM503.669 328.011L498.413 329.422C498.033 329.534 497.635 329.563 497.244 329.508C496.852 329.453 496.475 329.314 496.135 329.099C495.794 328.885 495.497 328.599 495.26 328.26C495.024 327.92 494.852 327.533 494.757 327.121C494.661 326.709 494.643 326.281 494.704 325.861C494.764 325.442 494.902 325.04 495.109 324.678C495.317 324.317 495.589 324.004 495.91 323.757C496.231 323.511 496.595 323.336 496.98 323.242L507.768 320.347C508.33 320.059 508.962 319.97 509.574 320.092C510.164 320.176 510.716 320.448 511.16 320.874C511.604 321.3 511.918 321.86 512.061 322.481L514.928 334.84C515.098 335.652 514.965 336.503 514.559 337.211C514.154 337.919 513.506 338.428 512.756 338.63C512.005 338.831 511.211 338.709 510.544 338.288C509.876 337.868 509.388 337.184 509.183 336.382L508.206 332.171C505.355 336.584 501.45 340.089 496.902 342.315C492.355 344.542 487.334 345.408 482.367 344.822C477.4 344.236 472.673 342.221 468.682 338.987C464.691 335.754 461.584 331.423 459.69 326.45L458.92 324.43C458.772 324.043 458.697 323.629 458.699 323.21C458.7 322.792 458.779 322.378 458.929 321.992C459.079 321.606 459.299 321.256 459.575 320.962C459.851 320.667 460.178 320.434 460.538 320.275C461.265 319.955 462.08 319.959 462.805 320.285C463.163 320.447 463.489 320.683 463.763 320.98C464.037 321.277 464.254 321.629 464.401 322.016L465.171 324.032C466.68 327.994 469.167 331.437 472.362 333.99C475.558 336.544 479.341 338.109 483.303 338.519C487.265 338.929 491.256 338.167 494.846 336.316C498.435 334.464 501.486 331.591 503.669 328.011Z" fill="#82D1F5"/>
<path d="M748.167 301.907L752.887 300.353C753.259 300.231 753.65 300.188 754.037 300.228C754.424 300.268 754.8 300.39 755.143 300.587C755.487 300.783 755.791 301.05 756.038 301.373C756.286 301.696 756.472 302.068 756.585 302.468C756.699 302.868 756.738 303.288 756.701 303.705C756.664 304.121 756.551 304.526 756.368 304.895C756.186 305.265 755.937 305.592 755.637 305.858C755.337 306.124 754.991 306.324 754.619 306.446L743.293 310.173C742.92 310.296 742.53 310.338 742.142 310.298C741.755 310.257 741.379 310.135 741.035 309.939C740.692 309.742 740.388 309.474 740.14 309.151C739.893 308.828 739.707 308.455 739.594 308.055L736.129 295.871C736.016 295.471 735.976 295.051 736.014 294.635C736.051 294.218 736.164 293.814 736.347 293.444C736.529 293.075 736.778 292.748 737.078 292.481C737.378 292.215 737.724 292.015 738.096 291.893C738.847 291.646 739.659 291.73 740.352 292.127C741.046 292.523 741.565 293.2 741.794 294.008L743.097 298.598C750.228 286.784 764.373 281.703 776.932 287.239C780.687 288.895 784.06 291.416 786.813 294.625C789.565 297.834 791.63 301.653 792.863 305.813C792.989 306.213 793.04 306.637 793.013 307.059C792.985 307.481 792.88 307.893 792.702 308.271C792.525 308.649 792.28 308.985 791.98 309.259C791.681 309.534 791.334 309.742 790.959 309.87C790.584 309.999 790.189 310.046 789.798 310.009C789.406 309.971 789.025 309.85 788.677 309.653C788.329 309.456 788.021 309.185 787.771 308.859C787.521 308.532 787.335 308.155 787.222 307.749C785.971 303.524 783.634 299.765 780.482 296.907C777.329 294.049 773.49 292.208 769.406 291.597C765.323 290.986 761.162 291.63 757.404 293.454C753.647 295.279 750.442 298.209 748.167 301.907ZM784.669 328.011L779.413 329.422C779.033 329.534 778.635 329.563 778.244 329.508C777.852 329.453 777.475 329.314 777.135 329.099C776.794 328.885 776.497 328.599 776.26 328.26C776.024 327.92 775.852 327.533 775.757 327.121C775.661 326.709 775.643 326.281 775.704 325.861C775.764 325.442 775.902 325.04 776.109 324.678C776.317 324.317 776.589 324.004 776.91 323.757C777.231 323.511 777.595 323.336 777.98 323.242L788.768 320.347C789.33 320.059 789.962 319.97 790.574 320.092C791.164 320.176 791.716 320.448 792.16 320.874C792.604 321.3 792.918 321.86 793.061 322.481L795.928 334.84C796.098 335.652 795.965 336.503 795.559 337.211C795.154 337.919 794.506 338.428 793.756 338.63C793.005 338.831 792.211 338.709 791.544 338.288C790.876 337.868 790.388 337.184 790.183 336.382L789.206 332.171C786.355 336.584 782.45 340.089 777.902 342.315C773.355 344.542 768.334 345.408 763.367 344.822C758.4 344.236 753.673 342.221 749.682 338.987C745.691 335.754 742.584 331.423 740.69 326.45L739.92 324.43C739.772 324.043 739.697 323.629 739.699 323.21C739.7 322.792 739.779 322.378 739.929 321.992C740.079 321.606 740.299 321.256 740.575 320.962C740.851 320.667 741.178 320.434 741.538 320.275C742.265 319.955 743.08 319.959 743.805 320.285C744.163 320.447 744.489 320.683 744.763 320.98C745.037 321.277 745.254 321.629 745.401 322.016L746.171 324.032C747.68 327.994 750.167 331.437 753.362 333.99C756.558 336.544 760.341 338.109 764.303 338.519C768.265 338.929 772.256 338.167 775.846 336.316C779.435 334.464 782.486 331.591 784.669 328.011Z" fill="#82D1F5"/>
</svg>
